<svg width="709" height="360" viewBox="0 0 709 360" fill="none" xmlns="http://www.w3.org/2000/svg">
<path d="M258.85 0H149.61L0 359.99H97.53L127.66 283.9C134.29 266.55 142.97 254.29 160.85 251.23C216.05 242.78 266.39 306.94 309.07 356.06C310.22 357.38 311.37 358.69 312.51 359.98L409.77 359.78L258.86 0H258.85ZM169.52 175.65L204.77 85.27L275.23 264.51C246.13 225.19 211.92 186.89 169.52 175.66V175.65Z" fill="white"/>
<path d="M625.415 0.230037C604.926 40.0245 585 77.1786 562.533 113.883C539.583 148.116 513.781 169.969 481.13 144.236C467.825 133.095 458.213 118.223 448.054 102.371L392.871 0L309 0.210015V63.6971L391.514 304.444L391.612 142.326L425.726 192.591C455.091 235.866 498.522 269.01 542.591 241.697C561.781 229.796 577.783 212.864 591.653 192.711L626.323 142.416L626.445 360L708.297 359.98L709 0.130019L625.407 0.220026L625.415 0.230037Z" fill="white"/>
<path d="M312.5 359.98V360H409.85L409.76 359.79L312.5 359.99V359.98Z" fill="white"/>
<path d="M409.94 359.78H409.76L409.85 360H410.03L409.94 359.78Z" fill="white"/>
</svg>
